<svg viewBox="0 0 48 48" fill="none" xmlns="http://www.w3.org/2000/svg">
    <path d="M8 38C8 39.0609 8.42143 40.0783 9.17157 40.8284C9.92172 41.5786 10.9391 42 12 42C13.0609 42 14.0783 41.5786 14.8284 40.8284C15.5786 40.0783 16 39.0609 16 38C16 36.9391 15.5786 35.9217 14.8284 35.1716C14.0783 34.4214 13.0609 34 12 34C10.9391 34 9.92172 34.4214 9.17157 35.1716C8.42143 35.9217 8 36.9391 8 38Z" stroke="currentColor" stroke-width="3" stroke-linecap="round" stroke-linejoin="round"/>
    <path d="M23 34H12V6H8" stroke="currentColor" stroke-width="3" stroke-linecap="round" stroke-linejoin="round"/>
    <path d="M12 10L40 12L38 26H12" stroke="currentColor" stroke-width="3" stroke-linecap="round" stroke-linejoin="round"/>
    <path d="M30 38L34 42L42 34" stroke="currentColor" stroke-width="3" stroke-linecap="round" stroke-linejoin="round"/>
</svg>
