<svg width="32" height="32" viewBox="0 0 32 32" fill="none" xmlns="http://www.w3.org/2000/svg">
<path d="M5.33301 25.3332C5.33301 26.0404 5.61396 26.7187 6.11406 27.2188C6.61415 27.7189 7.29243 27.9998 7.99967 27.9998C8.70692 27.9998 9.3852 27.7189 9.88529 27.2188C10.3854 26.7187 10.6663 26.0404 10.6663 25.3332C10.6663 24.6259 10.3854 23.9477 9.88529 23.4476C9.3852 22.9475 8.70692 22.6665 7.99967 22.6665C7.29243 22.6665 6.61415 22.9475 6.11406 23.4476C5.61396 23.9477 5.33301 24.6259 5.33301 25.3332Z" stroke="#2E008B" stroke-width="2" stroke-linecap="round" stroke-linejoin="round"/>
<path d="M20 25.3332C20 26.0404 20.281 26.7187 20.781 27.2188C21.2811 27.7189 21.9594 27.9998 22.6667 27.9998C23.3739 27.9998 24.0522 27.7189 24.5523 27.2188C25.0524 26.7187 25.3333 26.0404 25.3333 25.3332C25.3333 24.6259 25.0524 23.9477 24.5523 23.4476C24.0522 22.9475 23.3739 22.6665 22.6667 22.6665C21.9594 22.6665 21.2811 22.9475 20.781 23.4476C20.281 23.9477 20 24.6259 20 25.3332Z" stroke="#2E008B" stroke-width="2" stroke-linecap="round" stroke-linejoin="round"/>
<path d="M22.6663 22.6667H7.99967V4H5.33301" stroke="#2E008B" stroke-width="2" stroke-linecap="round" stroke-linejoin="round"/>
<path d="M8 6.6665L26.6667 7.99984L25.3333 17.3332H8" stroke="#2E008B" stroke-width="2" stroke-linecap="round" stroke-linejoin="round"/>
</svg>
