<svg viewBox="0 0 17 16" fill="none" xmlns="http://www.w3.org/2000/svg">
    <path
        d="M3.83398 11.3333C3.83398 11.687 3.97446 12.0261 4.22451 12.2761C4.47456 12.5262 4.8137 12.6667 5.16732 12.6667C5.52094 12.6667 5.86008 12.5262 6.11013 12.2761C6.36018 12.0261 6.50065 11.687 6.50065 11.3333C6.50065 10.9797 6.36018 10.6406 6.11013 10.3905C5.86008 10.1405 5.52094 10 5.16732 10C4.8137 10 4.47456 10.1405 4.22451 10.3905C3.97446 10.6406 3.83398 10.9797 3.83398 11.3333Z"
        stroke="currentColor" stroke-linecap="round" stroke-linejoin="round" />
    <path
        d="M10.5 11.3333C10.5 11.687 10.6405 12.0261 10.8905 12.2761C11.1406 12.5262 11.4797 12.6667 11.8333 12.6667C12.187 12.6667 12.5261 12.5262 12.7761 12.2761C13.0262 12.0261 13.1667 11.687 13.1667 11.3333C13.1667 10.9797 13.0262 10.6406 12.7761 10.3905C12.5261 10.1405 12.187 10 11.8333 10C11.4797 10 11.1406 10.1405 10.8905 10.3905C10.6405 10.6406 10.5 10.9797 10.5 11.3333Z"
        stroke="currentColor" stroke-linecap="round" stroke-linejoin="round" />
    <path
        d="M3.83333 11.333H2.5V3.99967C2.5 3.82286 2.57024 3.65329 2.69526 3.52827C2.82029 3.40325 2.98986 3.33301 3.16667 3.33301H9.16667V11.333M6.5 11.333H10.5M13.1667 11.333H14.5V7.33301M14.5 7.33301H9.16667M14.5 7.33301L12.5 3.99967H9.16667"
        stroke="currentColor" stroke-linecap="round" stroke-linejoin="round" />
</svg>