<svg viewBox="0 0 34 34" fill="none" xmlns="http://www.w3.org/2000/svg">
<rect x="0.5" y="0.5" width="33" height="33" stroke="currentColor"/>
<path d="M13.6672 17C13.6672 15.1591 15.1591 13.6664 17 13.6664C18.8409 13.6664 20.3336 15.1591 20.3336 17C20.3336 18.8409 18.8409 20.3336 17 20.3336C15.1591 20.3336 13.6672 18.8409 13.6672 17ZM11.8651 17C11.8651 19.836 14.164 22.1349 17 22.1349C19.836 22.1349 22.1349 19.836 22.1349 17C22.1349 14.164 19.836 11.8651 17 11.8651C14.164 11.8651 11.8651 14.164 11.8651 17ZM21.1382 11.6615C21.1381 11.8989 21.2084 12.1309 21.3401 12.3283C21.4719 12.5257 21.6593 12.6796 21.8785 12.7705C22.0977 12.8614 22.339 12.8852 22.5718 12.839C22.8046 12.7928 23.0185 12.6786 23.1863 12.5109C23.3542 12.3431 23.4686 12.1293 23.515 11.8966C23.5614 11.6638 23.5377 11.4225 23.447 11.2032C23.3563 10.9839 23.2025 10.7964 23.0052 10.6645C22.808 10.5326 22.576 10.4621 22.3386 10.462H22.3382C22.02 10.4621 21.715 10.5886 21.49 10.8135C21.265 11.0384 21.1384 11.3434 21.1382 11.6615ZM12.96 25.1398C11.985 25.0954 11.4551 24.933 11.103 24.7958C10.6361 24.614 10.303 24.3975 9.95272 24.0478C9.60248 23.698 9.38568 23.3652 9.20472 22.8983C9.06744 22.5463 8.90504 22.0162 8.86072 21.0413C8.81224 19.9872 8.80256 19.6706 8.80256 17.0001C8.80256 14.3296 8.81304 14.0138 8.86072 12.9589C8.90512 11.9839 9.06872 11.4549 9.20472 11.1018C9.38648 10.635 9.60296 10.3018 9.95272 9.9516C10.3025 9.60136 10.6353 9.38456 11.103 9.2036C11.455 9.06632 11.985 8.90392 12.96 8.8596C14.0141 8.81112 14.3307 8.80144 17 8.80144C19.6693 8.80144 19.9862 8.81192 21.0412 8.8596C22.0162 8.904 22.5452 9.0676 22.8982 9.2036C23.3651 9.38456 23.6982 9.60184 24.0485 9.9516C24.3987 10.3014 24.6147 10.635 24.7965 11.1018C24.9338 11.4538 25.0962 11.9839 25.1405 12.9589C25.189 14.0138 25.1986 14.3296 25.1986 17.0001C25.1986 19.6706 25.189 19.9863 25.1405 21.0413C25.0961 22.0162 24.9329 22.5462 24.7965 22.8983C24.6147 23.3652 24.3982 23.6983 24.0485 24.0478C23.6987 24.3972 23.3651 24.614 22.8982 24.7958C22.5462 24.933 22.0162 25.0954 21.0412 25.1398C19.9871 25.1882 19.6705 25.1979 17 25.1979C14.3295 25.1979 14.0138 25.1882 12.96 25.1398ZM12.8772 7.06056C11.8126 7.10904 11.0852 7.27784 10.4499 7.52504C9.792 7.78032 9.23504 8.1228 8.67848 8.67848C8.12192 9.23416 7.78032 9.792 7.52504 10.4499C7.27784 11.0856 7.10904 11.8126 7.06056 12.8772C7.01128 13.9434 7 14.2843 7 17C7 19.7157 7.01128 20.0566 7.06056 21.1228C7.10904 22.1874 7.27784 22.9144 7.52504 23.5501C7.78032 24.2076 8.122 24.7661 8.67848 25.3215C9.23496 25.877 9.792 26.219 10.4499 26.475C11.0864 26.7222 11.8126 26.891 12.8772 26.9394C13.944 26.9879 14.2843 27 17 27C19.7157 27 20.0566 26.9887 21.1228 26.9394C22.1874 26.891 22.9144 26.7222 23.5501 26.475C24.2076 26.219 24.765 25.8772 25.3215 25.3215C25.8781 24.7658 26.219 24.2076 26.475 23.5501C26.7222 22.9144 26.8918 22.1874 26.9394 21.1228C26.9879 20.0558 26.9992 19.7157 26.9992 17C26.9992 14.2843 26.9879 13.9434 26.9394 12.8772C26.891 11.8126 26.7222 11.0852 26.475 10.4499C26.219 9.7924 25.8772 9.23504 25.3215 8.67848C24.7658 8.12192 24.2076 7.78032 23.5509 7.52504C22.9144 7.27784 22.1874 7.10824 21.1236 7.06056C20.0574 7.01208 19.7165 7 17.0008 7C14.2851 7 13.944 7.01128 12.8772 7.06056Z" fill="currentColor"/>
</svg>
