<svg width="33" height="32" viewBox="0 0 33 32" fill="none" xmlns="http://www.w3.org/2000/svg">
<path d="M4.5 6.66683C4.5 6.31321 4.64048 5.97407 4.89052 5.72402C5.14057 5.47397 5.47971 5.3335 5.83333 5.3335H27.1667C27.5203 5.3335 27.8594 5.47397 28.1095 5.72402C28.3595 5.97407 28.5 6.31321 28.5 6.66683V20.0002C28.5 20.3538 28.3595 20.6929 28.1095 20.943C27.8594 21.193 27.5203 21.3335 27.1667 21.3335H5.83333C5.47971 21.3335 5.14057 21.193 4.89052 20.943C4.64048 20.6929 4.5 20.3538 4.5 20.0002V6.66683Z" stroke="currentColor" stroke-width="2" stroke-linecap="round" stroke-linejoin="round"/>
<path d="M9.83398 26.6665H23.1673" stroke="currentColor" stroke-width="2" stroke-linecap="round" stroke-linejoin="round"/>
<path d="M12.5 21.3335V26.6668" stroke="currentColor" stroke-width="2" stroke-linecap="round" stroke-linejoin="round"/>
<path d="M20.5 21.3335V26.6668" stroke="currentColor" stroke-width="2" stroke-linecap="round" stroke-linejoin="round"/>
<path d="M11.166 15.9998L15.166 11.9998L17.8327 14.6665L21.8327 10.6665" stroke="currentColor" stroke-width="2" stroke-linecap="round" stroke-linejoin="round"/>
</svg>
