<svg width="40" height="40" viewBox="0 0 40 40" fill="none" xmlns="http://www.w3.org/2000/svg">
<rect x="0.5" y="0.5" width="39" height="39" stroke="currentColor"/>
<g clip-path="url(#clip0_277_27462)">
<path d="M11 20C11 20.7956 11.3161 21.5587 11.8787 22.1213C12.4413 22.6839 13.2044 23 14 23C14.7956 23 15.5587 22.6839 16.1213 22.1213C16.6839 21.5587 17 20.7956 17 20C17 19.2044 16.6839 18.4413 16.1213 17.8787C15.5587 17.3161 14.7956 17 14 17C13.2044 17 12.4413 17.3161 11.8787 17.8787C11.3161 18.4413 11 19.2044 11 20Z" stroke="currentColor" stroke-width="1.5" stroke-linecap="round" stroke-linejoin="round"/>
<path d="M23 14C23 14.7956 23.3161 15.5587 23.8787 16.1213C24.4413 16.6839 25.2044 17 26 17C26.7956 17 27.5587 16.6839 28.1213 16.1213C28.6839 15.5587 29 14.7956 29 14C29 13.2044 28.6839 12.4413 28.1213 11.8787C27.5587 11.3161 26.7956 11 26 11C25.2044 11 24.4413 11.3161 23.8787 11.8787C23.3161 12.4413 23 13.2044 23 14Z" stroke="currentColor" stroke-width="1.5" stroke-linecap="round" stroke-linejoin="round"/>
<path d="M23 26C23 26.7956 23.3161 27.5587 23.8787 28.1213C24.4413 28.6839 25.2044 29 26 29C26.7956 29 27.5587 28.6839 28.1213 28.1213C28.6839 27.5587 29 26.7956 29 26C29 25.2044 28.6839 24.4413 28.1213 23.8787C27.5587 23.3161 26.7956 23 26 23C25.2044 23 24.4413 23.3161 23.8787 23.8787C23.3161 24.4413 23 25.2044 23 26Z" stroke="currentColor" stroke-width="1.5" stroke-linecap="round" stroke-linejoin="round"/>
<path d="M16.6992 18.7008L23.2992 15.3008" stroke="currentColor" stroke-width="1.5" stroke-linecap="round" stroke-linejoin="round"/>
<path d="M16.6992 21.3008L23.2992 24.7008" stroke="currentColor" stroke-width="1.5" stroke-linecap="round" stroke-linejoin="round"/>
</g>
<defs>
<clipPath id="clip0_277_27462">
<rect width="24" height="24" fill="white" transform="translate(8 8)"/>
</clipPath>
</defs>
</svg>
