<svg width="20" height="20" viewBox="0 0 20 20" fill="none" xmlns="http://www.w3.org/2000/svg">
    <rect width="20" height="20" fill="#20A9E2" />
    <path
        d="M6.8608 14V5.27273H10.1335C10.804 5.27273 11.3665 5.39773 11.821 5.64773C12.2784 5.89773 12.6236 6.24148 12.8565 6.67898C13.0923 7.11364 13.2102 7.60795 13.2102 8.16193C13.2102 8.72159 13.0923 9.21875 12.8565 9.65341C12.6207 10.0881 12.2727 10.4304 11.8125 10.6804C11.3523 10.9276 10.7855 11.0511 10.1122 11.0511H7.94318V9.75142H9.89915C10.2912 9.75142 10.6122 9.68324 10.8622 9.54688C11.1122 9.41051 11.2969 9.22301 11.4162 8.98438C11.5384 8.74574 11.5994 8.47159 11.5994 8.16193C11.5994 7.85227 11.5384 7.57955 11.4162 7.34375C11.2969 7.10795 11.1108 6.92472 10.858 6.79403C10.608 6.66051 10.2855 6.59375 9.89062 6.59375H8.44176V14H6.8608Z"
        fill="white" />
</svg>