<svg width="32" height="32" viewBox="0 0 32 32" fill="none" xmlns="http://www.w3.org/2000/svg">
<path d="M4 16C4 17.5759 4.31039 19.1363 4.91345 20.5922C5.5165 22.0481 6.40042 23.371 7.51472 24.4853C8.62902 25.5996 9.95189 26.4835 11.4078 27.0866C12.8637 27.6896 14.4241 28 16 28C17.5759 28 19.1363 27.6896 20.5922 27.0866C22.0481 26.4835 23.371 25.5996 24.4853 24.4853C25.5996 23.371 26.4835 22.0481 27.0866 20.5922C27.6896 19.1363 28 17.5759 28 16C28 14.4241 27.6896 12.8637 27.0866 11.4078C26.4835 9.95189 25.5996 8.62902 24.4853 7.51472C23.371 6.40042 22.0481 5.5165 20.5922 4.91345C19.1363 4.31039 17.5759 4 16 4C14.4241 4 12.8637 4.31039 11.4078 4.91345C9.95189 5.5165 8.62902 6.40042 7.51472 7.51472C6.40042 8.62902 5.5165 9.95189 4.91345 11.4078C4.31039 12.8637 4 14.4241 4 16Z" stroke="#2E008B" stroke-width="2" stroke-linecap="round" stroke-linejoin="round"/>
<path d="M12 13.3335C12 14.3944 12.4214 15.4118 13.1716 16.1619C13.9217 16.9121 14.9391 17.3335 16 17.3335C17.0609 17.3335 18.0783 16.9121 18.8284 16.1619C19.5786 15.4118 20 14.3944 20 13.3335C20 12.2726 19.5786 11.2552 18.8284 10.5051C18.0783 9.75492 17.0609 9.3335 16 9.3335C14.9391 9.3335 13.9217 9.75492 13.1716 10.5051C12.4214 11.2552 12 12.2726 12 13.3335Z" stroke="#2E008B" stroke-width="2" stroke-linecap="round" stroke-linejoin="round"/>
<path d="M8.22363 25.1322C8.55364 24.0338 9.22892 23.0711 10.1493 22.3868C11.0697 21.7025 12.1861 21.3332 13.333 21.3335H18.6663C19.8146 21.3331 20.9324 21.7034 21.8535 22.3892C22.7745 23.0751 23.4496 24.0399 23.7783 25.1402" stroke="#2E008B" stroke-width="2" stroke-linecap="round" stroke-linejoin="round"/>
</svg>
